HIERARCHY
ROOT root     
{
	OFFSET 0.0000 0.0000 0.0000
	CHANNELS 6 Xposition Yposition Zposition Zrotation Yrotation Xrotation
	JOINT pelvis   
	{
		OFFSET 0.0000 0.0000 0.0000
		CHANNELS 3 Zrotation Yrotation Xrotation
		JOINT thorax   
		{
			OFFSET 0.0000 23.0750 -5.0000
			CHANNELS 3 Zrotation Yrotation Xrotation
			JOINT rclavicle
			{
				OFFSET 0.0000 28.0009 0.0000
				CHANNELS 3 Zrotation Yrotation Xrotation
				JOINT rhumerus 
				{
					OFFSET -18.5725 5.5939 0.0000
					CHANNELS 3 Zrotation Yrotation Xrotation
					JOINT rradius  
					{
						OFFSET -24.8459 0.0000 0.0000
						CHANNELS 3 Zrotation Yrotation Xrotation
						JOINT rhand    
						{
							OFFSET -24.5477 0.0000 0.0000
							CHANNELS 3 Zrotation Yrotation Xrotation
							End Site
							{
								OFFSET -8.1826 0.0000 0.0000
							}
						}
					}
				}
			}
			JOINT lclavicle
			{
				OFFSET 0.0000 28.0009 0.0000
				CHANNELS 3 Zrotation Yrotation Xrotation
				JOINT lhumerus 
				{
					OFFSET 18.5725 5.5939 0.0000
					CHANNELS 3 Zrotation Yrotation Xrotation
					JOINT lradius  
					{
						OFFSET 24.8459 0.0000 0.0000
						CHANNELS 3 Zrotation Yrotation Xrotation
						JOINT lhand    
						{
							OFFSET 24.5477 0.0000 0.0000
							CHANNELS 3 Zrotation Yrotation Xrotation
							End Site
							{
								OFFSET 8.1826 0.0000 0.0000
							}
						}
					}
				}
			}
			JOINT head     
			{
				OFFSET 0.0000 35.2030 0.0000
				CHANNELS 3 Zrotation Yrotation Xrotation
				End Site
				{
					OFFSET 0.0000 11.7343 0.0000
				}
			}
		}
		JOINT rfemur   
		{
			OFFSET -8.2817 0.0000 0.0000
			CHANNELS 3 Zrotation Yrotation Xrotation
			JOINT rtibia   
			{
				OFFSET 0.0000 -43.3627 0.0000
				CHANNELS 3 Zrotation Yrotation Xrotation
				JOINT rfoot    
				{
					OFFSET 0.0000 -38.2947 0.0000
					CHANNELS 3 Zrotation Yrotation Xrotation
					JOINT rtoes    
					{
						OFFSET 0.0000 0.0000 16.6054
						CHANNELS 3 Zrotation Yrotation Xrotation
						End Site
						{
							OFFSET 0.0000 0.0000 5.5351
						}
					}
				}
			}
		}
		JOINT lfemur   
		{
			OFFSET 8.2817 0.0000 0.0000
			CHANNELS 3 Zrotation Yrotation Xrotation
			JOINT ltibia   
			{
				OFFSET 0.0000 -43.3627 0.0000
				CHANNELS 3 Zrotation Yrotation Xrotation
				JOINT lfoot    
				{
					OFFSET 0.0000 -38.2947 0.0000
					CHANNELS 3 Zrotation Yrotation Xrotation
					JOINT ltoes    
					{
						OFFSET 0.0000 0.0000 16.6054
						CHANNELS 3 Zrotation Yrotation Xrotation
						End Site
						{
							OFFSET 0.0000 0.0000 5.5351
						}
					}
				}
			}
		}
	}
}
MOTION
Frames: 11
Frame Time: .0333333
-14.59 81.776 13.377 -116.578 79.18 -102.898 0 -0 0 -1.9671 3.77917 -6.69411 19.6157 -8.57579 -4.59567e-05 34.1752 20.0092 17.6341 -180 85.7423 -180 1.11739 8.01544 0.0782994 -18.77 19.7543 1.19663e-05 -41.489 33.4145 18.6771 3.17206e-06 -86.5652 -2.98715e-06 7.65106 1.41392 0.0945989 2.44489 23.7625 -6.18884 4.81215 -18.5599 -6.5488 -0 -0 47.0856 -9.53132e-05 23.8888 16.2711 7.07408 -2.75134e-06 -78.8924 -13.3043 5.69314 -35.1681 -0 -0 24.0335 1.01281e-06 9.81543 -4.0819 179.294 2.94762e-06 -12.0914 
-13.593 81.203 13.174 -115.577 79.3173 -101.95 0 -0 0 -2.29784 3.66325 -6.95031 19.6722 -8.40399 -2.34534e-05 34.3213 20.2148 17.1073 -180 85.7935 -180 1.28411 8.31946 0.093401 -19.1289 20.1341 -0.000158961 -41.2348 32.7271 18.6306 -3.82014e-06 -85.6418 4.12222e-06 8.13774 1.69014 0.120204 2.45963 25.186 -6.13574 3.84728 -18.7386 -8.16011 -0 -0 51.3809 -7.83073e-07 23.2231 17.359 7.29515 2.47942e-05 -80.0827 -13.0263 4.49363 -35.9622 -0 -0 27.1068 7.18769e-06 10.6857 -5.57065 178.951 -5.34466e-06 -16.0942 
-12.64 80.676 12.918 -114.747 79.5245 -101.191 0 -0 0 -2.60846 3.65067 -7.08317 19.6661 -8.19144 -4.83393e-05 34.6103 20.245 16.5128 -180 85.9216 -180 1.3994 8.66063 0.106001 -19.6429 20.517 0.00010481 -40.9156 31.5365 18.6345 1.6483e-06 -84.5043 -1.49721e-06 8.64458 2.00374 0.151498 2.17375 26.5966 -6.25586 2.84624 -18.6204 -9.89097 -0 -0 55.6394 -0.000141633 21.5384 18.324 7.07357 3.58328e-06 -80.656 -12.9075 3.42246 -36.6718 -0 -0 30.0474 -9.33782e-06 11.4899 -6.98511 178.584 7.20105e-06 -18.8729 
-11.728 80.207 12.609 -114.139 79.7809 -100.687 0 -0 0 -2.89402 3.75983 -7.07966 19.6069 -7.94792 -1.79639e-05 35.0196 20.0778 15.8458 180 86.1114 180 1.43214 9.02744 0.113103 -20.2975 20.8729 5.96555e-05 -40.5518 29.868 18.6805 -1.01521e-06 -83.1507 1.59936e-06 9.14767 2.32993 0.186402 1.5875 27.9673 -6.55291 1.82479 -18.211 -11.7048 -0 -0 59.7875 0.000157643 18.9352 19.0626 6.39273 5.48183e-05 -80.3551 -12.9386 2.47536 -37.2047 -0 -0 32.6885 1.09339e-05 12.2677 -8.31515 178.199 -1.54217e-06 -20.6525 
-10.852 79.807 12.254 -113.807 80.0634 -100.495 0 -0 0 -3.13754 3.99604 -6.94454 19.5046 -7.67866 -1.1173e-05 35.5232 19.7019 15.1087 180 86.3866 180 1.35747 9.40731 0.111699 -21.0754 21.1657 -5.63452e-05 -40.1608 27.7842 18.7575 -1.91613e-06 -81.6271 2.21879e-06 9.62942 2.64163 0.2225 0.718543 29.2711 -7.01155 0.810321 -17.5188 -13.5706 -0 -0 63.7466 3.70635e-05 15.591 19.4924 5.31945 -1.07854e-05 -79.0151 -13.0924 1.64025 -37.5053 -0 -0 34.9179 1.315e-05 13.0417 -9.56378 177.796 2.66322e-06 -21.7087 
-10.007 79.484 11.862 -113.8 80.3535 -100.665 0 -0 0 -3.32244 4.35293 -6.69452 19.3698 -7.38887 8.55538e-06 36.0962 19.1126 14.3092 -180 86.7701 -180 1.15842 9.78832 0.0992013 -21.9438 21.3725 -9.21406e-05 -39.7633 25.3655 18.8556 0 -79.9827 0 10.0796 2.91338 0.257003 -0.395299 30.4892 -7.59867 -0.173132 -16.5633 -15.458 -0 -0 67.4481 -0.000142197 11.7524 19.5704 3.98654 -3.37862e-05 -76.578 -13.3322 0.898486 -37.5398 -0 -0 36.6674 2.0061e-06 13.8161 -10.7196 177.381 1.33087e-06 -22.182 
-9.1864 79.242 11.442 -114.19 80.6024 -101.268 0 -0 0 -3.42615 4.81067 -6.35549 19.2103 -7.08388 -4.02096e-05 36.7149 18.3207 13.4627 -180 87.3167 -180 0.827699 10.1581 0.0735994 -22.874 21.4702 8.75793e-05 -39.3818 22.7163 18.9683 0 -78.2858 -0 10.4938 3.12465 0.28701 -1.69912 31.6108 -8.26395 -1.09871 -15.3723 -17.3375 -0 -0 70.8252 1.3723e-05 7.69037 19.2961 2.55513 -1.16104e-05 -73.1416 -13.6141 0.232309 -37.2947 -0 -0 37.9125 -1.26451e-05 14.5715 -11.7683 176.965 6.70406e-06 -22.2043 
-8.3834 79.079 11.004 -115.036 80.7753 -102.355 0 -0 0 -3.42747 5.33755 -5.9584 19.0352 -6.77192 1.67004e-05 37.3512 17.3557 12.5898 -180 87.9824 -180 0.368294 10.5015 0.0337994 -23.8281 21.4493 -1.91952e-05 -39.0347 19.9482 19.087 1.44588e-06 -76.6031 -1.14195e-06 10.8736 3.26177 0.310499 -3.12389 32.636 -8.94796 -1.94377 -13.9784 -19.1775 -0 -0 73.8257 -1.62667e-05 3.67012 18.7024 1.1783 -2.74011e-06 -68.8528 -13.895 -0.37546 -36.7738 -0 -0 38.6618 -2.97583e-05 15.2679 -12.6919 176.568 1.54189e-05 -21.9036 
-7.5899 78.991 10.557 -116.366 80.8495 -103.946 0 -0 0 -3.31144 5.8919 -5.53635 18.8538 -6.46044 -3.01616e-06 37.983 16.2517 11.7134 180 88.911 180 -0.203498 10.799 -0.0191999 -24.7684 21.3037 0.000110685 -38.7408 17.1736 19.2097 -1.00456e-06 -75.0081 1.30901e-06 11.2238 3.32081 0.326406 -4.58978 33.5718 -9.58671 -2.69115 -12.4239 -20.9491 -0 -0 76.4067 -8.60455e-08 -0.0836003 17.8543 -0.0255999 -6.56495e-08 -64.1121 -14.1368 -0.942244 -35.993 -0 -0 38.9429 -3.9936e-05 15.8564 -13.4692 176.215 6.77672e-06 -21.4062 
-6.7982 78.974 10.108 -118.224 80.7816 -106.079 0 -0 0 -3.07578 6.42506 -5.12208 18.6805 -6.1672 2.33616e-05 38.5862 15.065 10.8646 -0.000615178 89.8148 -0.000614883 -0.863088 11.0261 -0.0832984 -25.659 21.0388 6.48006e-05 -38.5174 14.4904 19.3344 0 -73.5692 -0 11.548 3.30621 0.334379 -6.01461 34.4361 -10.1231 -3.33347 -10.7623 -22.6302 -0 -0 78.5474 -1.16177e-05 -3.39401 16.807 -0.982402 -4.26842e-06 -59.0496 -14.3096 -1.4866 -34.9775 -0 -0 38.8074 8.50009e-06 16.2876 -14.0816 175.934 -2.15693e-05 -20.8588 
-6.003 79.02 9.6596 -120.587 80.5601 -108.714 0 -0 0 -2.72519 6.88508 -4.74793 18.5278 -5.90627 -9.83244e-06 39.142 13.8439 10.0697 -0 88.5535 -0 -1.57251 11.1531 -0.153502 -26.4651 20.6652 5.78833e-05 -38.3779 11.9779 19.4633 -8.31132e-07 -72.3533 1.13659e-06 11.8518 3.22983 0.335308 -7.32143 35.2473 -10.5115 -3.86601 -9.05068 -24.2014 -0 -0 80.2359 2.32124e-06 -6.1534 15.6173 -1.66255 -1.57843e-05 -53.9601 -14.3954 -2.03016 -33.7602 -0 -0 38.3109 -0.000105587 16.5184 -14.5163 175.749 2.49666e-05 -20.3798 
